<?xml version="1.0" encoding="utf-8"?>
<!-- Generator: Adobe Illustrator 25.2.1, SVG Export Plug-In . SVG Version: 6.00 Build 0)  -->
<svg version="1.1" id="Layer_1" xmlns="http://www.w3.org/2000/svg" xmlns:xlink="http://www.w3.org/1999/xlink" x="0px" y="0px"
	 viewBox="0 0 1235.3 558" style="enable-background:new 0 0 1235.3 558;" xml:space="preserve">
<style type="text/css">
	.st0{fill:#1B0041;}
	.st1{font-family:'IskoolaPota';}
	.st2{font-size:212px;}
	.st3{fill:#314279;}
	.st4{display:none;fill:none;stroke:#1B0041;stroke-width:2;stroke-miterlimit:10;}
	.st5{fill:#9E9E9E;}
	.st6{fill:url(#SVGID_3_);}
	.st7{fill:#FFFFFF;}
	.st8{fill:#31427A;}
</style>
<g>
	<defs>
		<rect id="SVGID_1_" x="-40.1" y="11.8" width="1469" height="1069"/>
	</defs>
	<clipPath id="SVGID_2_">
		<use xlink:href="#SVGID_1_"  style="display:none;overflow:visible;"/>
	</clipPath>
</g>
<g>
	<g>
		<path class="st0" d="M409.3,312.3v-3.6h5c5.6,0,9.6-1.8,11.9-5.4c1.4-2.1,2.1-7,2.1-14.5v-85.5c0-8.3-0.9-13.4-2.7-15.5
			c-2.5-2.9-6.3-4.3-11.3-4.3h-5v-3.6h53.9c19.8,0,34.8,2.2,45.2,6.7c10.3,4.5,18.6,12,24.9,22.5c6.3,10.5,9.4,22.6,9.4,36.3
			c0,18.4-5.6,33.8-16.8,46.2c-12.6,13.8-31.7,20.7-57.4,20.7H409.3z M447.1,302.7c8.3,1.8,15.2,2.7,20.8,2.7
			c15.1,0,27.6-5.3,37.6-15.9c10-10.6,14.9-25,14.9-43.2c0-18.3-5-32.7-14.9-43.3c-10-10.5-22.8-15.8-38.4-15.8
			c-5.9,0-12.5,0.9-20,2.8V302.7z"/>
		<path class="st0" d="M667.4,176.8l3,45h-3c-4-13.5-9.8-23.2-17.3-29.1c-7.5-5.9-16.5-8.9-27-8.9c-8.8,0-16.7,2.2-23.8,6.7
			c-7.1,4.5-12.7,11.6-16.7,21.3c-4.1,9.8-6.1,21.9-6.1,36.4c0,12,1.9,22.4,5.8,31.2c3.8,8.8,9.6,15.5,17.3,20.2s16.5,7,26.4,7
			c8.6,0,16.2-1.8,22.8-5.5c6.6-3.7,13.8-11,21.7-21.9l3,2c-6.6,11.8-14.4,20.4-23.2,25.9s-19.4,8.2-31.5,8.2
			c-21.9,0-38.9-8.1-51-24.4c-9-12.1-13.5-26.4-13.5-42.8c0-13.2,3-25.4,8.9-36.4c5.9-11.1,14.1-19.6,24.5-25.7
			c10.4-6.1,21.7-9.1,34-9.1c9.6,0,19,2.3,28.3,7c2.7,1.4,4.7,2.1,5.9,2.1c1.8,0,3.3-0.6,4.6-1.9c1.7-1.8,2.9-4.2,3.6-7.3H667.4z"/>
	</g>
	<text transform="matrix(1 0 0 1 732.3801 308.2906)" class="st0 st1 st2"> </text>
	<g>
		<g>
			<path class="st3" d="M760.7,302.2c-4.4,4.6-8.6,7.8-12.8,9.8c-4.2,2-8.7,3-13.5,3c-9.8,0-18.3-4.1-25.6-12.3
				c-7.3-8.2-10.9-18.7-10.9-31.5c0-12.8,4-24.6,12.1-35.2c8.1-10.6,18.5-16,31.2-16c7.9,0,14.4,2.5,19.5,7.5v-16.5
				c0-10.2-0.2-16.5-0.7-18.8s-1.3-3.9-2.3-4.8c-1-0.8-2.3-1.3-3.9-1.3c-1.7,0-3.9,0.5-6.7,1.6l-1.3-3.4l26.7-10.9h4.4v103.4
				c0,10.5,0.2,16.9,0.7,19.2c0.5,2.3,1.3,3.9,2.3,4.8c1.1,0.9,2.3,1.4,3.8,1.4c1.8,0,4.1-0.6,7-1.7l1.1,3.4l-26.6,11h-4.5V302.2z
				 M760.7,295.4v-46.1c-0.4-4.4-1.6-8.5-3.5-12.1c-2-3.6-4.5-6.4-7.8-8.3s-6.4-2.8-9.4-2.8c-5.7,0-10.8,2.6-15.3,7.7
				c-5.9,6.8-8.9,16.7-8.9,29.7c0,13.2,2.9,23.2,8.6,30.2c5.7,7,12.1,10.5,19.1,10.5C749.4,304.3,755.2,301.3,760.7,295.4z"/>
			<path class="st3" d="M809.3,256.5c-0.1,13.3,3.2,23.7,9.7,31.2c6.5,7.6,14.2,11.3,22.9,11.3c5.9,0,11-1.6,15.3-4.8
				c4.3-3.2,8-8.7,10.9-16.6l3,2c-1.4,8.9-5.3,17-11.9,24.4c-6.6,7.3-14.8,11-24.7,11c-10.7,0-19.9-4.2-27.6-12.5
				c-7.7-8.4-11.5-19.6-11.5-33.7c0-15.3,3.9-27.2,11.8-35.8c7.8-8.6,17.7-12.8,29.5-12.8c10,0,18.3,3.3,24.7,9.9
				c6.4,6.6,9.7,15.4,9.7,26.5H809.3z M809.3,250.9h41.4c-0.3-5.7-1-9.8-2.1-12.1c-1.6-3.6-4.1-6.5-7.3-8.6
				c-3.2-2.1-6.6-3.1-10.1-3.1c-5.4,0-10.2,2.1-14.5,6.3C812.6,237.5,810.1,243.4,809.3,250.9z"/>
			<path class="st3" d="M909.1,239.1c10.5-12.6,20.5-18.9,30-18.9c4.9,0,9.1,1.2,12.6,3.7s6.3,6.5,8.4,12.1c1.4,3.9,2.1,9.9,2.1,18
				v38.2c0,5.7,0.5,9.5,1.4,11.5c0.7,1.6,1.9,2.9,3.5,3.8c1.6,0.9,4.5,1.4,8.8,1.4v3.5h-44.2v-3.5h1.9c4.2,0,7.1-0.6,8.7-1.9
				s2.8-3.1,3.5-5.6c0.3-1,0.4-4,0.4-9.2v-36.6c0-8.1-1.1-14-3.2-17.7c-2.1-3.7-5.7-5.5-10.7-5.5c-7.7,0-15.5,4.2-23.1,12.7v47.2
				c0,6.1,0.4,9.8,1.1,11.2c0.9,1.9,2.2,3.3,3.8,4.2c1.6,0.9,4.8,1.3,9.7,1.3v3.5h-44.2v-3.5h2c4.6,0,7.6-1.2,9.2-3.5
				c1.6-2.3,2.4-6.7,2.4-13.2v-33.2c0-10.7-0.2-17.3-0.7-19.6s-1.2-3.9-2.2-4.8c-1-0.8-2.4-1.3-4.1-1.3c-1.8,0-4,0.5-6.5,1.5
				l-1.5-3.5l27-10.9h4.2V239.1z"/>
			<path class="st3" d="M1003,193.4v29.4h20.9v6.8H1003v58c0,5.8,0.8,9.7,2.5,11.7c1.7,2,3.8,3,6.4,3c2.1,0,4.2-0.7,6.2-2
				c2-1.3,3.6-3.3,4.7-5.9h3.8c-2.3,6.4-5.5,11.2-9.7,14.4c-4.2,3.2-8.5,4.8-12.9,4.8c-3,0-5.9-0.8-8.8-2.5c-2.9-1.7-5-4-6.3-7.1
				c-1.4-3.1-2.1-7.9-2.1-14.3v-60.2h-14.2v-3.2c3.6-1.4,7.2-3.9,11-7.3c3.7-3.4,7.1-7.5,10-12.2c1.5-2.5,3.6-7,6.2-13.6H1003z"/>
			<path class="st3" d="M1082,299.4c-9.2,7.1-14.9,11.2-17.3,12.3c-3.5,1.6-7.3,2.4-11.2,2.4c-6.2,0-11.3-2.1-15.3-6.3
				c-4-4.2-6-9.8-6-16.7c0-4.4,1-8.1,2.9-11.3c2.7-4.4,7.3-8.6,13.9-12.5c6.6-3.9,17.6-8.7,33-14.3v-3.5c0-8.9-1.4-15-4.2-18.4
				s-7-5-12.4-5c-4.1,0-7.4,1.1-9.8,3.3c-2.5,2.2-3.7,4.8-3.7,7.6l0.2,5.7c0,3-0.8,5.3-2.3,6.9c-1.5,1.6-3.5,2.4-6,2.4
				c-2.4,0-4.4-0.8-5.9-2.5c-1.5-1.7-2.3-4-2.3-6.9c0-5.6,2.9-10.7,8.6-15.4c5.7-4.7,13.8-7,24.1-7c7.9,0,14.5,1.3,19.5,4
				c3.8,2,6.7,5.2,8.5,9.5c1.2,2.8,1.8,8.5,1.8,17.2v30.4c0,8.5,0.2,13.8,0.5,15.7c0.3,1.9,0.9,3.2,1.6,3.9c0.7,0.7,1.6,1,2.6,1
				c1,0,2-0.2,2.7-0.7c1.4-0.8,4-3.2,7.9-7.1v5.5c-7.3,9.8-14.3,14.6-20.9,14.6c-3.2,0-5.7-1.1-7.6-3.3
				C1083,308.5,1082,304.7,1082,299.4z M1082,293.1V259c-9.8,3.9-16.2,6.7-19,8.3c-5.1,2.9-8.8,5.9-11,9c-2.2,3.1-3.3,6.5-3.3,10.3
				c0,4.7,1.4,8.6,4.2,11.7c2.8,3.1,6,4.6,9.7,4.6C1067.4,302.8,1073.9,299.6,1082,293.1z"/>
			<path class="st3" d="M1143.8,173.4v118.7c0,5.6,0.4,9.3,1.2,11.1c0.8,1.8,2.1,3.2,3.8,4.2c1.7,0.9,4.8,1.4,9.5,1.4v3.5h-43.8
				v-3.5c4.1,0,6.9-0.4,8.4-1.3c1.5-0.8,2.7-2.2,3.5-4.2c0.8-2,1.3-5.7,1.3-11.2v-81.2c0-10.1-0.2-16.3-0.7-18.6
				c-0.5-2.3-1.2-3.9-2.2-4.7c-1-0.8-2.3-1.3-3.9-1.3c-1.7,0-3.8,0.5-6.4,1.6l-1.7-3.4l26.7-10.9H1143.8z"/>
		</g>
	</g>
	<line class="st4" x1="410.1" y1="332.1" x2="1177.8" y2="332.1"/>
	<path class="st5" d="M125.9,374l-0.3,0.3l-0.3,0.3c0,0-0.1,0.1-0.3,0.3c2,3.1,3.8,5.2,5,6.6c1.2,1.4,1.8,2.1,1.8,2.1
		c2.4,2.7,5,5.4,7.7,7.9c1.4,1.2,2.7,2.5,4.1,3.7c0.7,0.6,1.4,1.2,2.1,1.8c0.7,0.6,1.5,1.1,2.2,1.7c2.9,2.3,5.9,4.4,9,6.5
		c1.5,1,3.2,2,4.7,2.9c1.6,1,3.2,1.8,4.9,2.8c3.3,1.8,6.6,3.4,10.1,4.9c0.9,0.4,1.7,0.8,2.6,1.1c0.9,0.3,1.7,0.7,2.6,1
		c1.7,0.7,3.5,1.4,5.3,1.9c1.8,0.6,3.6,1.2,5.4,1.7c1.8,0.5,3.6,1,5.4,1.5c1.8,0.5,3.7,0.9,5.5,1.4c0.9,0.2,1.8,0.5,2.8,0.7
		c0.9,0.2,1.8,0.4,2.8,0.6c1.9,0.4,3.7,0.8,5.6,1.1c1.9,0.3,3.7,0.6,5.6,0.9c3.2,0.4,6.4,0.7,9.6,0.8c0.6,0,1.1,0,1.7,0
		c1.9,0,3.8-0.1,5.7-0.2c1.9,0,3.8-0.4,5.6-0.6c1.9-0.3,3.7-0.5,5.6-0.8c1.8-0.4,3.7-0.7,5.5-1.2c0.9-0.2,1.8-0.4,2.7-0.6
		c0.9-0.2,1.8-0.5,2.7-0.8c1.8-0.5,3.6-1.1,5.4-1.7c0.9-0.3,1.8-0.6,2.6-0.9c0.9-0.3,1.7-0.7,2.6-1c1.7-0.7,3.5-1.5,5.2-2.2
		c0,0,0.2-0.1,0.6-0.3l1.9-1c1.7-0.9,4.2-2.2,7.3-4.3c-0.1-0.3-0.1-0.4-0.1-0.4c0-0.1-0.1-0.3-0.1-0.4c0-0.1-0.1-0.3-0.1-0.4
		l-0.1-0.4c-3.8-0.3-6.5-0.3-8.4-0.4c-0.9,0-1.6,0-2,0c-0.5,0-0.7,0-0.7,0c-1.8,0-3.6-0.1-5.4-0.1c-0.8,0-1.6,0-2.3,0c-1,0-2,0-3,0
		c-1.8,0-3.5,0-5.3,0l-2.6,0c-0.9,0-1.7,0-2.6,0c-1.7,0-3.5,0-5.2,0c-1.7,0-3.5-0.1-5.2-0.1c-0.9,0-1.7,0-2.6,0c-0.4,0-0.9,0-1.3,0
		c-0.4,0-0.9,0-1.3,0c-1.7,0-3.4-0.1-5.1,0c-0.5,0-1,0-1.5,0c-1.4,0-2.9,0-4.3,0c-1.4,0-2.9,0.1-4.3,0.1c-1.7,0-3.4,0-5.1,0
		c-1.7,0-3.4-0.1-5.1-0.2c-3.4-0.1-6.8-0.6-10.3-1c-1.7-0.3-3.4-0.6-5.1-0.9c-1.7-0.3-3.4-0.7-5.1-1.1c-1.7-0.3-3.4-0.8-5-1.2
		c-0.8-0.2-1.7-0.4-2.5-0.7c-0.8-0.2-1.6-0.5-2.5-0.8c-3.3-1-6.6-2.1-9.9-3.3c-1.6-0.7-3.2-1.2-4.8-2c-1.6-0.7-3.2-1.4-4.8-2.2
		c-3.2-1.5-6.3-3.1-9.3-4.8l-2.3-1.3c-0.7-0.5-1.5-0.9-2.2-1.4c-1.5-0.9-3-1.9-4.4-2.9c-2.9-2-5.8-4.1-8.5-6.3c0,0-0.7-0.6-2.1-1.7
		c-1.3-1.2-3.4-2.9-5.8-5.4L125.9,374z"/>
	<path class="st5" d="M137.9,412.5c-0.1,0.1-0.2,0.2-0.3,0.3l-0.3,0.3l-0.3,0.3c2,2.4,3.7,4,4.7,5.2c1.1,1.1,1.7,1.6,1.7,1.6
		c2.3,2.1,4.6,4.2,7,6.2c2.4,2,4.9,3.8,7.5,5.7c2.6,1.8,5.2,3.5,7.9,5.2c1.4,0.8,2.7,1.6,4.1,2.4c1.4,0.7,2.8,1.5,4.2,2.2
		c1.4,0.7,2.8,1.4,4.3,2.1c1.5,0.6,2.9,1.3,4.4,1.9c3,1.2,5.9,2.4,9,3.3c0.8,0.3,1.5,0.5,2.3,0.8l2.3,0.7c1.5,0.4,3.1,0.9,4.6,1.3
		c1.6,0.4,3.1,0.8,4.7,1.2c1.6,0.3,3.2,0.7,4.7,1c1.6,0.4,3.2,0.6,4.8,0.9c1.6,0.3,3.2,0.6,4.8,0.8c1.6,0.2,3.3,0.4,4.9,0.5
		c1.6,0.1,3.2,0.1,4.8,0.1c0.8,0,1.6,0,2.4-0.1c0.8-0.1,1.6-0.1,2.4-0.2c1.6-0.2,3.2-0.4,4.8-0.6c3.2-0.7,6.4-1.3,9.5-2.3
		c1.5-0.5,3.1-1,4.6-1.5c1.5-0.6,3-1.2,4.5-1.9c3-1.2,5.8-2.9,8.6-4.5l0.5-0.3c0.3-0.2,0.9-0.5,1.5-1c1.3-0.9,3.3-2.3,5.8-4.5
		l-0.1-0.4c0-0.1-0.1-0.3-0.1-0.4l-0.1-0.4c0,0,0-0.1-0.1-0.4c-3.3-0.2-5.6-0.1-7.2,0c-0.8,0-1.3,0.1-1.7,0h-0.6
		c-1.6,0-3.1,0.1-4.6,0.1c-1.5,0.1-3,0.1-4.5,0.1c-1.5,0-3,0.1-4.4,0.2c-1.5,0-2.9,0-4.4,0.1c-0.7,0-1.4,0.1-2.2,0.1
		c-0.5,0-0.9,0-1.4,0c-0.3,0-0.5,0-0.8,0c-1.4,0-2.9,0-4.3,0.1c-0.6,0-1.3,0-1.9,0c-0.8,0-1.6,0-2.4,0c-0.7,0-1.4,0.1-2.1,0.1
		l-2.1,0c-1.4,0-2.8,0.1-4.2,0.2c-1.4,0-2.9,0.1-4.3,0.2c-1.4,0.1-2.9,0.1-4.3,0.1c-1.4,0-2.9,0.1-4.3,0c-1.4-0.1-2.9-0.1-4.3-0.2
		c-1.4-0.1-2.9-0.3-4.3-0.5c-1.4-0.1-2.9-0.4-4.3-0.6c-0.7-0.1-1.4-0.2-2.1-0.3c-0.7-0.1-1.4-0.3-2.1-0.4c-2.9-0.5-5.7-1.2-8.5-2
		c-1.4-0.4-2.8-0.8-4.2-1.2c-1.4-0.4-2.8-0.9-4.2-1.3c-1.4-0.5-2.8-1-4.2-1.5c-1.4-0.5-2.8-1.1-4.1-1.6c-2.8-1.1-5.5-2.3-8.2-3.6
		c-1.3-0.7-2.7-1.3-4-2c-1.3-0.7-2.7-1.4-4-2.1c-2.6-1.4-5.2-3-7.8-4.6c0,0-0.6-0.4-1.9-1.2c-1.3-0.8-3.2-2.1-5.5-3.9L137.9,412.5z"
		/>
	<path class="st5" d="M148.8,448.1c-0.1,0.1-0.2,0.2-0.3,0.3l-0.3,0.3l-0.3,0.3c1.8,2,3.2,3.4,4.2,4.3c1,0.9,1.4,1.4,1.4,1.4
		c2,1.8,4,3.5,6.1,5.2c1,0.8,2.1,1.7,3.2,2.5c1.1,0.8,2.1,1.6,3.2,2.3c2.2,1.5,4.4,3,6.7,4.4c1.1,0.7,2.3,1.4,3.5,2.1
		c1.2,0.7,2.4,1.3,3.6,2c1.2,0.6,2.4,1.3,3.6,1.8c1.2,0.6,2.4,1.2,3.7,1.7c1.3,0.5,2.5,1.1,3.8,1.6c1.3,0.5,2.6,1,3.8,1.5
		c2.6,0.9,5.2,1.7,7.9,2.4c1.3,0.4,2.7,0.7,4,1.1c1.4,0.3,2.7,0.8,4.1,1c1.4,0.3,2.7,0.6,4.1,0.9c1.4,0.2,2.8,0.5,4.2,0.7
		c1.2,0.2,2.3,0.3,3.5,0.4c1.2,0.1,2.4,0.1,3.5,0.2c0.5,0,0.9,0,1.4,0c1.4-0.1,2.8-0.2,4.3-0.3c1.4-0.2,2.8-0.5,4.2-0.7
		c0.7-0.2,1.4-0.3,2.1-0.4c0.7-0.2,1.4-0.4,2.1-0.6c1.4-0.4,2.7-0.8,4.1-1.3c2.6-1.1,5.3-2.1,7.7-3.5c0.6-0.3,1.2-0.7,1.8-1
		c0.6-0.4,1.2-0.7,1.8-1.1c1.2-0.8,2.3-1.6,3.4-2.5c0,0,0.1-0.1,0.4-0.3c0.3-0.2,0.7-0.5,1.2-1c1-1,2.6-2.4,4.5-4.6
		c-0.1-0.3-0.2-0.4-0.2-0.4c-0.1-0.1-0.1-0.3-0.2-0.4l-0.2-0.4c0,0-0.1-0.1-0.2-0.4c-2.9-0.1-4.9,0.1-6.2,0.1c-1.3,0.1-2,0.1-2,0.1
		c-1.3,0-2.6,0.1-3.9,0.2c-1.3,0.1-2.6,0.1-3.8,0.2c-2.5,0.2-5,0.2-7.4,0.3c-1.2,0-2.4,0-3.6,0.1c-1.2,0-2.4,0.1-3.6,0.1
		c-1.2,0-2.4,0-3.5,0.1c-1.2,0-2.4,0-3.5,0.1c-0.4,0-0.8,0-1.2,0.1c-1,0-2,0.1-2.9,0.1c-1,0.1-2,0.2-3,0.2c-1.2,0.1-2.4,0.1-3.6,0.2
		c-1.2,0-2.4,0-3.6,0c-1.2,0-2.4-0.1-3.6-0.1c-0.6,0-1.2-0.1-1.8-0.1c-0.6-0.1-1.2-0.1-1.8-0.2c-2.4-0.3-4.8-0.7-7.3-1.2
		c-1.2-0.3-2.4-0.5-3.6-0.8c-1.2-0.3-2.4-0.6-3.6-0.9c-1.2-0.3-2.4-0.6-3.6-1c-1.2-0.3-2.4-0.7-3.6-1.1c-1.2-0.4-2.4-0.7-3.6-1.2
		c-1.2-0.4-2.4-0.8-3.6-1.3c-2.4-0.9-4.7-1.8-7.1-2.9c-2.3-1-4.6-2.1-6.9-3.2c-2.3-1.1-4.6-2.3-6.8-3.6c0,0-0.6-0.3-1.7-1
		c-1.1-0.6-2.8-1.6-4.9-3L148.8,448.1z"/>
	<path class="st5" d="M161,482.9c-0.1,0.1-0.2,0.2-0.3,0.3c-0.1,0.1-0.2,0.2-0.3,0.3c0,0-0.1,0.1-0.3,0.3c1.4,1.7,2.6,2.8,3.3,3.6
		c0.8,0.8,1.1,1.2,1.1,1.2c1.6,1.5,3.2,3,4.8,4.4c1.7,1.4,3.4,2.8,5.1,4.1c1.8,1.3,3.6,2.6,5.4,3.8c1.9,1.2,3.8,2.4,5.7,3.5
		c1,0.5,2,1.1,3,1.6c1,0.5,2,1,3,1.5c2.1,0.9,4.1,1.8,6.3,2.6c1.1,0.4,2.2,0.8,3.3,1.1c1.1,0.4,2.2,0.7,3.3,1
		c2.2,0.6,4.5,1.2,6.8,1.8c2.3,0.5,4.6,1,7,1.3c0.7,0.1,1.5,0.2,2.2,0.2c1.7,0.1,3.3,0.1,5,0c2.4-0.2,4.8-0.6,7.1-1.3
		c2.3-0.6,4.6-1.6,6.8-2.6c1.1-0.6,2.1-1.1,3.2-1.8c0.5-0.3,1-0.6,1.5-0.9c0.5-0.4,1-0.7,1.5-1.1c0.5-0.3,1-0.7,1.4-1.1
		c0.5-0.4,0.9-0.7,1.4-1.1c0.9-0.8,1.7-1.7,2.5-2.5c0,0,0.1-0.1,0.3-0.3c0.2-0.2,0.5-0.5,0.9-1c0.7-1,1.8-2.4,3-4.6
		c-0.2-0.2-0.2-0.4-0.2-0.4c-0.1-0.1-0.2-0.2-0.2-0.4c-0.1-0.1-0.2-0.2-0.2-0.4c0,0-0.1-0.1-0.2-0.4c-2.5,0-4.1,0.2-5.2,0.3
		c-1.1,0.1-1.6,0.1-1.6,0.1c-1.1,0.1-2.1,0.2-3.2,0.3c-1,0.1-2.1,0.1-3.1,0.2c-2,0.2-4,0.3-5.8,0.5c-1,0-1.9,0.1-2.8,0.1
		c-0.9,0.1-1.9,0.1-2.8,0.1c-1.8,0.1-3.7,0.2-5.5,0.4c-1.3,0.1-2.5,0.2-3.8,0.4c-0.6,0-1.1,0.1-1.7,0.2c-1.9,0.3-3.8,0.4-5.7,0.6
		c-1,0-1.9,0-2.9,0c-1,0-1.9-0.1-2.9-0.2c-1-0.1-1.9-0.2-2.9-0.3c-1-0.1-1.9-0.3-2.9-0.5c-1.9-0.3-3.9-0.8-5.8-1.2
		c-1-0.2-2-0.5-2.9-0.7c-1-0.3-1.9-0.6-2.9-0.8c-1.9-0.6-3.9-1.2-5.8-1.9c-1.9-0.7-3.9-1.4-5.8-2.2c-1.9-0.8-3.8-1.7-5.7-2.6
		c-1.9-0.9-3.8-1.9-5.6-2.9c0,0-0.5-0.3-1.4-0.8c-0.9-0.5-2.3-1.3-4.1-2.4C161.1,482.8,161,482.9,161,482.9"/>
	<g>
		<g>
			<path class="st0" d="M470.9,338.8v16.4c1.3-1.4,2.7-2.5,4.3-3.2c1.6-0.7,3.2-1.1,4.8-1.1c2,0,3.9,0.6,5.6,1.7
				c1.7,1.1,3,2.7,4,4.8c1,2,1.5,4.3,1.5,6.7c0,2.9-0.7,5.5-2.1,8c-1.4,2.4-3.3,4.3-5.8,5.8c-2.4,1.4-5.1,2.1-7.9,2.1
				c-2,0-4.1-0.3-6.3-1s-3.8-1.5-5-2.4v-30.1c0-1.6-0.2-2.7-0.7-3.3c-0.4-0.6-1.1-0.9-1.9-0.9c-0.7,0-1.1,0.1-1.4,0.2l-0.3-1.9
				l9-1.7H470.9z M470.9,358.4v13.4c0,1.2,0.1,2.2,0.4,2.9c0.3,0.8,0.8,1.4,1.7,1.8c0.8,0.4,2,0.6,3.6,0.6c1.4,0,2.7-0.4,3.9-1.3
				s2-2.1,2.7-3.6s1-3.3,1-5.2c0-2-0.3-3.9-1-5.6s-1.6-3.1-2.8-4c-1.2-1-2.5-1.5-3.9-1.5C474.6,356,472.8,356.8,470.9,358.4z"/>
			<path class="st0" d="M509.2,352.1v1.9c-1.1,0-1.8,0.1-2.3,0.4s-0.7,0.7-0.7,1.3c0,0.5,0.3,1.5,1,2.9l5,11.6l3.9-9.8
				c1.1-2.8,1.6-4.4,1.6-5c0-0.9-0.8-1.4-2.3-1.4c-0.3,0-0.5,0-0.6,0v-1.9h9.2v1.9c-0.7,0.2-1.3,0.4-1.7,0.7
				c-0.4,0.3-0.8,0.8-1.2,1.4c-0.4,0.7-0.8,1.7-1.3,3.1l-9.1,24.9c-0.6,1.5-1.4,2.9-2.3,4.1c-1,1.2-2.1,2.1-3.4,2.8
				c-1.3,0.7-2.7,1-4.3,1c-1.7,0-3-0.4-4.1-1.1c-1.1-0.8-1.6-1.8-1.6-3c0-0.9,0.3-1.6,0.9-2.3c0.6-0.6,1.4-0.9,2.3-0.9
				c0.9,0,2,0.3,3.2,1s2.3,1,3.1,1s1.4-0.2,1.9-0.7c0.5-0.5,0.9-1.3,1.4-2.7l1.5-4l-10.4-22.6c-0.8-1.7-1.7-2.6-2.8-2.8v-1.9H509.2z
				"/>
			<path class="st0" d="M547.7,339.6h25.9c3.7,0,7,0.6,9.9,1.7c2.8,1.1,5.2,2.7,7,4.6c1.8,1.9,3.2,4,4.1,6.3s1.4,4.7,1.4,7
				c0,3.2-0.8,6.3-2.5,9.3c-1.7,3-4.4,5.5-8,7.4c-3.6,1.9-8.1,2.9-13.5,2.9h-24.3V377h1.8c1.5,0,2.6-0.2,3.4-0.5s1.3-1,1.7-1.8
				c0.3-0.9,0.5-2.1,0.5-3.7v-23.4c0-2.3-0.4-3.9-1.2-4.8c-0.8-0.9-2.1-1.3-4.1-1.3h-2.2V339.6z M563.2,343.4v31.3
				c0.7,0.3,1.9,0.5,3.4,0.7c1.6,0.2,3,0.3,4.5,0.3c2.7,0,5.1-0.4,7.1-1.3c2-0.9,3.7-2.1,4.9-3.6c1.3-1.5,2.2-3.3,2.8-5.3
				c0.6-2,0.9-4.1,0.9-6.3c0-3.4-0.7-6.4-2-8.9s-3.3-4.5-5.8-5.8c-2.5-1.4-5.5-2.1-8.8-2.1C567.8,342.6,565.5,342.9,563.2,343.4z"/>
			<path class="st0" d="M612.7,351v6.1h0.1c0.9-2,1.9-3.5,3.1-4.5c1.2-1,2.5-1.5,3.9-1.5c0.8,0,1.5,0.1,2.1,0.4
				c0.6,0.3,1,0.7,1.4,1.2s0.5,1.2,0.5,1.9c0,1.1-0.3,1.9-0.8,2.5c-0.5,0.6-1.3,1-2.2,1c-0.6,0-1.1-0.1-1.3-0.3
				c-0.3-0.2-0.7-0.5-1.3-1c-0.6-0.5-1.2-0.7-1.6-0.7c-0.5,0-1.2,0.5-2,1.5c-0.8,1-1.4,2-1.8,2.9v12.3c0,1.3,0.1,2.2,0.3,2.8
				c0.2,0.6,0.6,1,1.1,1.2c0.5,0.2,1.3,0.3,2.3,0.3h1v1.9h-15.8V377c1.1,0,2-0.1,2.6-0.3c0.6-0.2,1-0.6,1.2-1.1
				c0.2-0.6,0.3-1.5,0.3-2.8v-13.4c0-3.1-0.9-4.7-2.6-4.7c-0.2,0-0.5,0-0.8,0.1V353l8-2.1H612.7z"/>
			<path class="st0" d="M631.6,370.8c1.3,0,2.3,0.4,3.2,1.3c0.9,0.9,1.3,2,1.3,3.2c0,1.3-0.4,2.3-1.3,3.2c-0.9,0.9-2,1.3-3.2,1.3
				c-1.3,0-2.3-0.4-3.2-1.3c-0.9-0.9-1.3-2-1.3-3.2c0-1.3,0.4-2.3,1.3-3.2C629.2,371.3,630.3,370.8,631.6,370.8z"/>
			<path class="st0" d="M652,339.6h25.9c3.7,0,7,0.6,9.9,1.7c2.8,1.1,5.2,2.7,7,4.6c1.8,1.9,3.2,4,4.1,6.3c0.9,2.3,1.4,4.7,1.4,7
				c0,3.2-0.9,6.3-2.5,9.3c-1.7,3-4.4,5.5-8,7.4c-3.6,1.9-8.1,2.9-13.5,2.9H652V377h1.8c1.5,0,2.6-0.2,3.4-0.5
				c0.8-0.3,1.3-1,1.7-1.8s0.5-2.1,0.5-3.7v-23.4c0-2.3-0.4-3.9-1.2-4.8c-0.8-0.9-2.1-1.3-4.1-1.3H652V339.6z M667.5,343.4v31.3
				c0.7,0.3,1.9,0.5,3.4,0.7c1.6,0.2,3,0.3,4.5,0.3c2.7,0,5.1-0.4,7.1-1.3c2-0.9,3.7-2.1,4.9-3.6c1.3-1.5,2.2-3.3,2.8-5.3
				s0.9-4.1,0.9-6.3c0-3.4-0.7-6.4-2-8.9s-3.3-4.5-5.8-5.8c-2.5-1.4-5.5-2.1-8.8-2.1C672,342.6,669.7,342.9,667.5,343.4z"/>
			<path class="st0" d="M716.9,351v6.1h0.1c0.9-2,1.9-3.5,3.1-4.5c1.2-1,2.5-1.5,3.9-1.5c0.8,0,1.5,0.1,2.1,0.4
				c0.6,0.3,1,0.7,1.4,1.2s0.5,1.2,0.5,1.9c0,1.1-0.3,1.9-0.8,2.5c-0.5,0.6-1.3,1-2.2,1c-0.6,0-1.1-0.1-1.3-0.3
				c-0.3-0.2-0.7-0.5-1.3-1c-0.6-0.5-1.2-0.7-1.6-0.7c-0.5,0-1.2,0.5-2,1.5c-0.8,1-1.4,2-1.8,2.9v12.3c0,1.3,0.1,2.2,0.3,2.8
				c0.2,0.6,0.6,1,1.1,1.2c0.5,0.2,1.3,0.3,2.3,0.3h1v1.9h-15.8V377c1.1,0,2-0.1,2.6-0.3s1-0.6,1.2-1.1c0.2-0.6,0.3-1.5,0.3-2.8
				v-13.4c0-3.1-0.9-4.7-2.6-4.7c-0.2,0-0.5,0-0.8,0.1V353l8-2.1H716.9z"/>
			<path class="st0" d="M762.7,365.3c0,2.7-0.7,5.2-2.1,7.4s-3.3,4-5.7,5.3c-2.4,1.3-5.1,1.9-8,1.9c-4.2,0-7.6-1.4-10.4-4.1
				s-4.1-6.1-4.1-10.2c0-2.1,0.4-4.1,1.1-5.9c0.8-1.8,1.9-3.3,3.3-4.7s3.1-2.4,5-3.1c1.9-0.7,3.9-1.1,6.1-1.1c2.1,0,4.1,0.3,5.9,1
				c1.8,0.7,3.3,1.7,4.7,3c1.3,1.3,2.4,2.8,3.1,4.6C762.3,361.3,762.7,363.2,762.7,365.3z M755.1,368.2c0-3-0.3-5.7-1-7.9
				c-0.7-2.2-1.6-3.9-2.9-5.1c-1.3-1.2-2.8-1.7-4.5-1.7c-2.1,0-3.8,0.8-4.9,2.5c-1.1,1.7-1.7,4.1-1.7,7.2c0,3.8,0.7,7.1,2.1,9.9
				c1.4,2.8,3.5,4.2,6.4,4.2c2.1,0,3.8-0.8,4.8-2.4S755.1,371.2,755.1,368.2z"/>
			<path class="st0" d="M792.6,369.9l1.2,1.1c-0.7,1.8-1.6,3.3-2.9,4.7c-1.2,1.4-2.6,2.4-4.2,3.1c-1.6,0.7-3.2,1.1-4.9,1.1
				c-1.8,0-3.4-0.3-5-1s-2.9-1.7-4.1-3c-1.2-1.3-2.1-2.8-2.7-4.5c-0.6-1.7-0.9-3.5-0.9-5.5c0-2.9,0.6-5.4,1.8-7.7s2.9-4.1,5-5.4
				s4.6-1.9,7.3-1.9c1.4,0,2.6,0.1,3.8,0.4c1.2,0.3,2.1,0.7,3,1.2c0.8,0.5,1.5,1.1,1.9,1.8c0.5,0.7,0.7,1.5,0.7,2.3
				c0,1-0.4,1.9-1.1,2.5c-0.7,0.6-1.7,1-2.8,1c-1.2,0-2-0.3-2.4-0.8c-0.5-0.6-0.9-1.4-1.2-2.5s-0.7-1.9-1.1-2.5
				c-0.4-0.6-1.2-0.8-2.3-0.8c-1.3,0-2.4,0.4-3.4,1.1c-0.9,0.7-1.7,1.7-2.2,3.1c-0.5,1.3-0.8,2.8-0.8,4.5c0,2.2,0.4,4.2,1.3,6
				c0.8,1.8,2,3.2,3.5,4.2s3.1,1.5,5,1.5C788,373.9,790.4,372.6,792.6,369.9z"/>
			<path class="st0" d="M809.2,338.8v16.5c3.1-2.7,6.2-4.1,9.3-4.1c1.4,0,2.8,0.3,4,0.9c1.2,0.6,2.2,1.5,3,2.8s1.2,3,1.2,5.1v12.7
				c0,1.2,0.1,2.1,0.3,2.7c0.2,0.6,0.6,1,1.1,1.2c0.5,0.2,1.3,0.3,2.3,0.3v1.9H816V377c1.5,0,2.4-0.3,2.9-0.8s0.7-1.7,0.7-3.4v-11.7
				c0-1.6-0.3-2.8-0.9-3.8c-0.6-0.9-1.6-1.4-3-1.4c-1,0-2.1,0.2-3.1,0.6c-1,0.4-2.2,1.1-3.4,2v14.3c0,1.1,0.1,2,0.3,2.6
				c0.2,0.6,0.5,1,1,1.3s1.2,0.4,2,0.4c0.4,0,0.7,0,1,0v1.9h-15.3V377c1.2,0,2-0.1,2.5-0.3c0.5-0.2,0.9-0.6,1.1-1.2
				c0.2-0.6,0.3-1.5,0.3-2.7v-26.4c0-1.4-0.2-2.5-0.5-3.1s-1-1-2-1c-0.5,0-0.9,0-1.4,0.1l-0.3-1.9l8.9-1.7H809.2z"/>
			<path class="st0" d="M851,378.8h-15.1V377c0.2,0,0.5,0,0.9,0c0.9,0,1.5-0.1,2-0.4s0.8-0.7,1-1.3s0.3-1.5,0.3-2.6v-13.4
				c0-3.1-0.9-4.7-2.6-4.7c-0.4,0-0.8,0.1-1.2,0.2l-0.4-1.9l8.8-2.1h2.5v21.8c0,1.2,0.1,2.1,0.3,2.7c0.2,0.6,0.6,1,1.1,1.2
				c0.5,0.2,1.3,0.3,2.4,0.3V378.8z M843.8,338.8c1.2,0,2.2,0.4,3,1.2c0.8,0.8,1.2,1.8,1.2,3c0,1.2-0.4,2.1-1.3,3
				c-0.8,0.8-1.8,1.2-3,1.2c-1.2,0-2.1-0.4-3-1.2c-0.8-0.8-1.2-1.8-1.2-3c0-1.2,0.4-2.2,1.2-3C841.6,339.3,842.6,338.8,843.8,338.8z
				"/>
			<path class="st0" d="M886.1,365.3c0,2.7-0.7,5.2-2.1,7.4s-3.3,4-5.7,5.3c-2.4,1.3-5.1,1.9-8,1.9c-4.2,0-7.6-1.4-10.4-4.1
				s-4.1-6.1-4.1-10.2c0-2.1,0.4-4.1,1.1-5.9c0.8-1.8,1.9-3.3,3.3-4.7s3.1-2.4,5-3.1c1.9-0.7,3.9-1.1,6.1-1.1c2.1,0,4.1,0.3,5.9,1
				c1.8,0.7,3.3,1.7,4.7,3c1.3,1.3,2.4,2.8,3.1,4.6C885.8,361.3,886.1,363.2,886.1,365.3z M878.5,368.2c0-3-0.3-5.7-1-7.9
				c-0.7-2.2-1.6-3.9-2.9-5.1c-1.3-1.2-2.8-1.7-4.5-1.7c-2.1,0-3.8,0.8-4.9,2.5c-1.1,1.7-1.7,4.1-1.7,7.2c0,3.8,0.7,7.1,2.1,9.9
				c1.4,2.8,3.5,4.2,6.4,4.2c2.1,0,3.8-0.8,4.8-2.4S878.5,371.2,878.5,368.2z"/>
			<path class="st0" d="M906.1,378.8h-15.1V377c0.2,0,0.5,0,0.9,0c0.9,0,1.5-0.1,2-0.4s0.8-0.7,1-1.3s0.3-1.5,0.3-2.6v-13.4
				c0-3.1-0.9-4.7-2.6-4.7c-0.4,0-0.8,0.1-1.2,0.2l-0.4-1.9l8.8-2.1h2.5v21.8c0,1.2,0.1,2.1,0.3,2.7c0.2,0.6,0.6,1,1.1,1.2
				c0.5,0.2,1.3,0.3,2.4,0.3V378.8z M898.9,338.8c1.2,0,2.2,0.4,3,1.2c0.8,0.8,1.2,1.8,1.2,3c0,1.2-0.4,2.1-1.3,3
				c-0.8,0.8-1.8,1.2-3,1.2c-1.2,0-2.1-0.4-3-1.2c-0.8-0.8-1.2-1.8-1.2-3c0-1.2,0.4-2.2,1.2-3C896.7,339.3,897.7,338.8,898.9,338.8z
				"/>
			<path class="st0" d="M970.5,367.6l1.8,1.3c-4,7.3-10.2,11-18.5,11c-3.5,0-6.7-0.6-9.5-1.7c-2.8-1.1-5.3-2.7-7.3-4.6
				c-2-2-3.5-4.2-4.5-6.6c-1-2.4-1.5-4.9-1.5-7.5c0-3.7,1-7.2,3.1-10.4c2.1-3.2,4.9-5.7,8.4-7.6c3.6-1.9,7.5-2.8,11.7-2.8
				c1.7,0,3.2,0.1,4.6,0.4c1.4,0.3,2.8,0.7,4.4,1.1c1.6,0.5,2.6,0.7,3,0.7c0.6,0,1-0.2,1.4-0.6c0.4-0.4,0.5-0.9,0.5-1.6h1.9l1,13.1
				H969c-0.6-1.6-1.4-3-2.4-4.3c-1-1.3-2.1-2.3-3.3-3.2s-2.5-1.6-4-2.1c-1.5-0.5-2.9-0.8-4.4-0.8c-2.9,0-5.4,0.7-7.7,2.2
				c-2.3,1.5-4,3.6-5.3,6.3c-1.3,2.7-1.9,5.8-1.9,9.2c0,3.3,0.7,6.2,2,8.7c1.3,2.6,3.2,4.6,5.6,6s5.2,2.2,8.2,2.2
				C962,376.3,966.8,373.4,970.5,367.6z"/>
			<path class="st0" d="M987.8,351v6.1h0.1c0.9-2,1.9-3.5,3.1-4.5c1.2-1,2.5-1.5,3.9-1.5c0.8,0,1.5,0.1,2.1,0.4
				c0.6,0.3,1,0.7,1.4,1.2s0.5,1.2,0.5,1.9c0,1.1-0.3,1.9-0.8,2.5c-0.5,0.6-1.3,1-2.2,1c-0.6,0-1.1-0.1-1.3-0.3
				c-0.3-0.2-0.7-0.5-1.3-1c-0.6-0.5-1.2-0.7-1.6-0.7c-0.5,0-1.2,0.5-2,1.5c-0.8,1-1.4,2-1.8,2.9v12.3c0,1.3,0.1,2.2,0.3,2.8
				c0.2,0.6,0.6,1,1.1,1.2c0.5,0.2,1.3,0.3,2.3,0.3h1v1.9h-15.8V377c1.1,0,2-0.1,2.6-0.3s1-0.6,1.2-1.1c0.2-0.6,0.3-1.5,0.3-2.8
				v-13.4c0-3.1-0.9-4.7-2.6-4.7c-0.2,0-0.5,0-0.8,0.1V353l8-2.1H987.8z"/>
			<path class="st0" d="M1019.3,378.8h-15.1V377c0.2,0,0.5,0,0.9,0c0.9,0,1.5-0.1,2-0.4s0.8-0.7,1-1.3s0.3-1.5,0.3-2.6v-13.4
				c0-3.1-0.9-4.7-2.6-4.7c-0.4,0-0.8,0.1-1.2,0.2l-0.4-1.9l8.8-2.1h2.5v21.8c0,1.2,0.1,2.1,0.3,2.7c0.2,0.6,0.6,1,1.1,1.2
				c0.5,0.2,1.3,0.3,2.4,0.3V378.8z M1012.1,338.8c1.2,0,2.2,0.4,3,1.2c0.8,0.8,1.2,1.8,1.2,3c0,1.2-0.4,2.1-1.3,3
				c-0.8,0.8-1.8,1.2-3,1.2c-1.2,0-2.1-0.4-3-1.2c-0.8-0.8-1.2-1.8-1.2-3c0-1.2,0.4-2.2,1.2-3
				C1009.9,339.3,1010.9,338.8,1012.1,338.8z"/>
			<path class="st0" d="M1043.8,351.6v8.7h-1.9c-0.6-2.1-1.6-3.8-3-5.1c-1.4-1.2-3-1.9-4.8-1.9c-1.2,0-2.2,0.2-2.9,0.7
				c-0.7,0.5-1.1,1.1-1.1,2c0,0.6,0.2,1.2,0.8,1.8c0.3,0.3,0.8,0.7,1.4,1c0.6,0.4,1.8,1.1,3.7,2.1c1.9,1,3.4,1.9,4.7,2.7
				s2.2,1.5,2.7,2c1.1,1.1,1.8,2.1,2.2,3c0.4,0.9,0.6,1.9,0.6,3.1c0,1.6-0.4,3-1.2,4.2s-1.9,2.2-3.3,2.9c-1.4,0.7-3,1-4.8,1
				c-1,0-1.9-0.1-2.8-0.2c-0.9-0.2-2-0.4-3.2-0.7c-1.2-0.3-2-0.4-2.3-0.4c-0.5,0-1.1,0.2-1.9,0.6h-1.3v-9.6h1.9
				c0.5,2.3,1.7,4.2,3.4,5.6c1.7,1.5,3.7,2.2,5.9,2.2c1.1,0,2-0.3,2.7-0.9c0.7-0.6,1-1.4,1-2.4c0-1-0.4-1.8-1.1-2.6
				c-0.6-0.6-1.4-1.2-2.3-1.8c-0.9-0.6-2-1.2-3.3-1.8c-1.3-0.7-2.4-1.3-3.3-1.9c-1-0.6-1.8-1.3-2.5-2c-1.6-1.5-2.4-3.3-2.4-5.4
				c0-1.5,0.4-2.8,1.1-3.9c0.8-1.2,1.8-2.1,3.2-2.7c1.3-0.7,2.8-1,4.4-1c1.3,0,2.8,0.1,4.4,0.4c1.5,0.3,2.7,0.5,3.4,0.5
				c0.4,0,0.7-0.1,0.9-0.3H1043.8z"/>
			<path class="st0" d="M1069.2,351.9v3.5h-7.9v16.3c0,1.1,0.3,2.1,0.9,2.8c0.6,0.7,1.4,1,2.5,1c1.9,0,3.2-1,3.9-3h1.3
				c-0.3,2.3-1.3,4.1-2.8,5.4s-3.4,2-5.7,2c-2,0-3.7-0.6-5-1.8c-1.3-1.2-2-3-2-5.4v-17.3h-2.1v-1.9c1.4-0.9,2.8-2.2,4.1-3.9
				c1.3-1.7,2.4-3.7,3.3-6.1h1.7v8.3H1069.2z"/>
			<path class="st0" d="M1089.9,378.8h-15.1V377c0.2,0,0.5,0,0.9,0c0.9,0,1.5-0.1,2-0.4s0.8-0.7,1-1.3s0.3-1.5,0.3-2.6v-13.4
				c0-3.1-0.9-4.7-2.6-4.7c-0.4,0-0.8,0.1-1.2,0.2l-0.4-1.9l8.8-2.1h2.5v21.8c0,1.2,0.1,2.1,0.3,2.7c0.2,0.6,0.6,1,1.1,1.2
				c0.5,0.2,1.3,0.3,2.4,0.3V378.8z M1082.7,338.8c1.2,0,2.2,0.4,3,1.2c0.8,0.8,1.2,1.8,1.2,3c0,1.2-0.4,2.1-1.3,3
				c-0.8,0.8-1.8,1.2-3,1.2c-1.2,0-2.1-0.4-3-1.2c-0.8-0.8-1.2-1.8-1.2-3c0-1.2,0.4-2.2,1.2-3
				C1080.5,339.3,1081.5,338.8,1082.7,338.8z"/>
			<path class="st0" d="M1122.7,373.5l1,1.3c-0.9,1.5-2.1,2.8-3.5,3.7c-1.4,0.9-2.8,1.4-4.2,1.4c-1.3,0-2.3-0.4-3.2-1.1
				c-0.9-0.7-1.3-1.7-1.3-3c0-0.2,0-0.4,0.1-0.8c-3.7,3.3-6.9,4.9-9.4,4.9c-1.3,0-2.4-0.3-3.4-0.9c-1-0.6-1.8-1.4-2.3-2.5
				c-0.6-1.1-0.8-2.3-0.8-3.7c0-1.6,0.4-3,1.1-4.1c0.7-1.1,1.8-2.1,3.2-3c1.4-0.8,3.4-1.7,5.8-2.5l5.9-1.9v-3.8
				c0-1.6-0.3-2.7-0.9-3.3c-0.6-0.6-1.7-1-3.2-1c-2.7,0-4.1,1-4.1,3c0,0.2,0,0.3,0,0.4c0,0.1,0,0.2,0,0.4c0,1-0.3,1.8-0.8,2.5
				c-0.5,0.6-1.3,0.9-2.2,0.9c-0.8,0-1.6-0.3-2.1-0.8c-0.6-0.5-0.9-1.2-0.9-2.1c0-1.3,0.5-2.4,1.4-3.5c0.9-1,2.2-1.8,3.8-2.4
				c1.6-0.6,3.5-0.8,5.5-0.8c2,0,3.9,0.2,5.5,0.7c1.6,0.5,2.8,1.2,3.7,2.2c0.9,1,1.3,2.2,1.3,3.7v15.4c0,1.6,0.4,2.5,1.3,2.5
				S1121.7,374.8,1122.7,373.5z M1111.5,363.7c-3.2,0.9-5.6,1.9-7.1,3c-1.5,1-2.2,2.3-2.2,3.9c0,1.2,0.4,2.2,1.1,3.1
				c0.7,0.9,1.6,1.3,2.6,1.3c0.8,0,1.7-0.3,2.8-0.8c1.1-0.6,2-1.2,2.8-2V363.7z"/>
			<path class="st0" d="M1139.7,351v4.1c3-2.7,6.1-4.1,9.2-4.1c1.4,0,2.7,0.3,3.9,0.9c1.3,0.6,2.3,1.6,3.1,2.9
				c0.8,1.4,1.2,3.2,1.2,5.4v12.6c0,1.8,0.3,2.9,0.8,3.4s1.5,0.8,3,0.8v1.9h-14.4V377c1,0,1.7-0.1,2.2-0.3c0.5-0.2,0.8-0.6,1.1-1.2
				c0.2-0.6,0.3-1.5,0.3-2.7v-11.8c0-3.6-1.4-5.4-4.2-5.4c-0.9,0-1.9,0.2-3,0.7c-1.1,0.5-2.2,1.1-3.2,2v14.6c0,1.3,0.1,2.2,0.3,2.8
				c0.2,0.6,0.6,1,1.2,1.1c0.6,0.2,1.4,0.3,2.6,0.3v1.9H1129V377c1,0,1.8-0.1,2.3-0.3s0.9-0.6,1.1-1.2c0.2-0.6,0.3-1.5,0.3-2.7v-13
				c0-2-0.2-3.3-0.7-4c-0.5-0.6-1.2-0.9-2.3-0.9c-0.2,0-0.3,0-0.4,0c-0.1,0-0.2,0-0.3,0V353l8.3-2.1H1139.7z"/>
		</g>
	</g>
	<linearGradient id="SVGID_3_" gradientUnits="userSpaceOnUse" x1="193.4224" y1="325.7964" x2="209.8217" y2="67.192">
		<stop  offset="0" style="stop-color:#314279"/>
		<stop  offset="0.5633" style="stop-color:#241A57"/>
		<stop  offset="1" style="stop-color:#1B0041"/>
	</linearGradient>
	<path class="st6" d="M348.1,103.5c-9.8-48.2-40.4-61.2-70.7-61.2c-31.3,0-62.2,13.8-69.7,17.4c-0.1,0-1.7,0.8-1.7,0.8
		c-9,4.2-50.8,21.9-86.7,9.8c0,0,42.7,2.7,73.5-15C91.2,18.9,66.6,83,66.6,83c-36.1,111.7,47.7,245.6,47.7,245.6
		s55.8,29.5,81.8,35.9c50.6,12.6,95.3,7.7,95.3,7.7C298.9,366.8,369.4,208.7,348.1,103.5z"/>
	<path class="st7" d="M150.5,255.5c0,0-53.2-70.7-24.4-117c28.8-46.3,82.6-48.2,99.5-45.1c16.9,3.1,50.7,16.3,56.3,40
		c5.6,23.8,6.3,33.8,5,40.7c-1.3,6.9-1.3,17.5,3.8,23.8c5,6.3,11.3,13.8,11.3,13.8s6.3,6.9-5,11.3c-11.3,4.4-6.9,7.5-6.3,10
		c0.6,2.5,1.9,4.4,2.5,6.3c0.6,1.9-1.9,1.3-3.1,3.1c-1.3,1.9-3.8,5-1.9,8.1c1.9,3.1-5.6,3.1-6.3,7.5c-0.6,4.4,1.3,6.9,1.9,8.1
		c0.6,1.3,3.1,11.3-13.8,13.1c-16.9,1.9-16.9-0.6-22.5-1.3c-5.6-0.6-24.3,20.6-23.1,36.9c1,13-42.5-4.4-59.9-11.9
		c-3.7-1.6-5.8-5.6-5-9.5c1.3-5.9,1.8-15.6-3.4-27.4"/>
	<path class="st8" d="M114.9,337.7c-0.1,0.1-0.2,0.2-0.3,0.4l-0.3,0.4l-0.3,0.4c2.8,3,5,5,6.4,6.4l2.2,2.1c3,2.7,6.1,5.3,9.2,7.9
		c1.6,1.3,3.1,2.6,4.8,3.8c1.6,1.2,3.2,2.5,4.9,3.6c1.6,1.2,3.3,2.4,5,3.5c1.7,1.2,3.4,2.3,5.1,3.4l2.6,1.7l2.6,1.6
		c1.7,1.1,3.5,2.1,5.3,3.1c3.5,2.1,7.1,4,10.8,5.9c1.9,0.9,3.7,1.8,5.6,2.7c1.9,0.8,3.8,1.7,5.6,2.5c1.9,0.8,3.8,1.6,5.7,2.3
		c1,0.4,1.9,0.8,2.9,1.1c1,0.4,1.9,0.7,2.9,1c3.9,1.4,7.9,2.7,11.8,4.1l6,1.8c2,0.6,4.1,1.1,6.1,1.6l3.1,0.7c1,0.2,2.1,0.4,3.1,0.6
		c2.1,0.3,4.2,0.7,6.3,0.9c4.2,0.3,8.5,0.5,12.7,0.2c1.5-0.1,2.9-0.2,4.4-0.3c2.8-0.3,5.5-0.7,8.3-1.1c2.1-0.4,4.2-0.9,6.2-1.4
		c1-0.2,2.1-0.5,3.1-0.7c1-0.3,2-0.6,3-1c2-0.7,4-1.3,6-2.1c1.9-0.8,3.9-1.7,5.8-2.6c0,0,1-0.4,2.8-1.4c1.8-1.1,4.6-2.7,8-5.1
		c-0.1-0.3-0.1-0.5-0.1-0.5c-0.1-0.2-0.1-0.3-0.1-0.5c0-0.2-0.1-0.3-0.1-0.5l-0.1-0.5c-4.2-0.4-7.2-0.3-9.2-0.3c-2-0.1-3-0.1-3-0.1
		c-2-0.1-4-0.1-5.9-0.1c-32.2,0-56.9-2.8-73.3-7l-2.8-0.7c-0.9-0.2-1.8-0.5-2.8-0.7c-1.8-0.5-3.7-1-5.5-1.6
		c-1.8-0.6-3.7-1.1-5.5-1.7c-1.8-0.6-3.6-1.3-5.5-1.9c-3.6-1.3-7.3-2.6-10.9-4.1c-1.8-0.7-3.6-1.5-5.4-2.3c-0.9-0.4-1.8-0.8-2.7-1.2
		c-0.9-0.4-1.8-0.8-2.7-1.2c-1.8-0.8-3.6-1.6-5.3-2.5c-1.8-0.8-3.5-1.7-5.3-2.6c-3.5-1.8-6.9-3.7-10.4-5.6c-3.4-1.9-6.8-4-10.2-6.1
		c0,0-0.8-0.5-2.5-1.6c-1.7-1.1-4.2-2.7-7.4-5L114.9,337.7z"/>
</g>
</svg>
