<?xml version="1.0" encoding="utf-8"?>
<!-- Generator: Adobe Illustrator 25.2.1, SVG Export Plug-In . SVG Version: 6.00 Build 0)  -->
<svg version="1.1" id="Layer_1" xmlns="http://www.w3.org/2000/svg" xmlns:xlink="http://www.w3.org/1999/xlink" x="0px" y="0px"
	 viewBox="0 0 1235.3 558" style="enable-background:new 0 0 1235.3 558;" xml:space="preserve">
<style type="text/css">
	.st0{fill:#1B0041;}
	.st1{font-family:'IskoolaPota';}
	.st2{font-size:200px;}
	.st3{font-size:212px;}
	.st4{fill:#314279;}
	.st5{display:none;fill:none;stroke:#1B0041;stroke-width:2;stroke-miterlimit:10;}
	.st6{fill:#9E9E9E;}
	.st7{font-family:'IskoolaPota-Bold';}
	.st8{font-size:59.3221px;}
	.st9{letter-spacing:2;}
	.st10{letter-spacing:11;}
	.st11{fill:url(#SVGID_3_);}
	.st12{fill:#FFFFFF;}
	.st13{fill:#31427A;}
</style>
<g>
	<defs>
		<rect id="SVGID_1_" x="-40.1" y="11.8" width="1469" height="1069"/>
	</defs>
	<clipPath id="SVGID_2_">
		<use xlink:href="#SVGID_1_"  style="display:none;overflow:visible;"/>
	</clipPath>
</g>
<g>
	<text transform="matrix(1 0 0 1 405.9279 312.2906)" class="st0 st1 st2">DC</text>
	<text transform="matrix(1 0 0 1 732.3801 308.2906)" class="st0 st1 st3"> </text>
	<g>
		<g>
			<path class="st4" d="M760.7,302.2c-4.4,4.6-8.6,7.8-12.8,9.8c-4.2,2-8.7,3-13.5,3c-9.8,0-18.3-4.1-25.6-12.3
				c-7.3-8.2-10.9-18.7-10.9-31.5c0-12.8,4-24.6,12.1-35.2c8.1-10.6,18.5-16,31.2-16c7.9,0,14.4,2.5,19.5,7.5v-16.5
				c0-10.2-0.2-16.5-0.7-18.8s-1.3-3.9-2.3-4.8c-1-0.8-2.3-1.3-3.9-1.3c-1.7,0-3.9,0.5-6.7,1.6l-1.3-3.4l26.7-10.9h4.4v103.4
				c0,10.5,0.2,16.9,0.7,19.2c0.5,2.3,1.3,3.9,2.3,4.8c1.1,0.9,2.3,1.4,3.8,1.4c1.8,0,4.1-0.6,7-1.7l1.1,3.4l-26.6,11h-4.5V302.2z
				 M760.7,295.4v-46.1c-0.4-4.4-1.6-8.5-3.5-12.1c-2-3.6-4.5-6.4-7.8-8.3s-6.4-2.8-9.4-2.8c-5.7,0-10.8,2.6-15.3,7.7
				c-5.9,6.8-8.9,16.7-8.9,29.7c0,13.2,2.9,23.2,8.6,30.2c5.7,7,12.1,10.5,19.1,10.5C749.4,304.3,755.2,301.3,760.7,295.4z"/>
			<path class="st4" d="M809.3,256.5c-0.1,13.3,3.2,23.7,9.7,31.2c6.5,7.6,14.2,11.3,22.9,11.3c5.9,0,11-1.6,15.3-4.8
				c4.3-3.2,8-8.7,10.9-16.6l3,2c-1.4,8.9-5.3,17-11.9,24.4c-6.6,7.3-14.8,11-24.7,11c-10.7,0-19.9-4.2-27.6-12.5
				c-7.7-8.4-11.5-19.6-11.5-33.7c0-15.3,3.9-27.2,11.8-35.8c7.8-8.6,17.7-12.8,29.5-12.8c10,0,18.3,3.3,24.7,9.9
				c6.4,6.6,9.7,15.4,9.7,26.5H809.3z M809.3,250.9h41.4c-0.3-5.7-1-9.8-2.1-12.1c-1.6-3.6-4.1-6.5-7.3-8.6
				c-3.2-2.1-6.6-3.1-10.1-3.1c-5.4,0-10.2,2.1-14.5,6.3C812.6,237.5,810.1,243.4,809.3,250.9z"/>
			<path class="st4" d="M909.1,239.1c10.5-12.6,20.5-18.9,30-18.9c4.9,0,9.1,1.2,12.6,3.7s6.3,6.5,8.4,12.1c1.4,3.9,2.1,9.9,2.1,18
				v38.2c0,5.7,0.5,9.5,1.4,11.5c0.7,1.6,1.9,2.9,3.5,3.8c1.6,0.9,4.5,1.4,8.8,1.4v3.5h-44.2v-3.5h1.9c4.2,0,7.1-0.6,8.7-1.9
				s2.8-3.1,3.5-5.6c0.3-1,0.4-4,0.4-9.2v-36.6c0-8.1-1.1-14-3.2-17.7c-2.1-3.7-5.7-5.5-10.7-5.5c-7.7,0-15.5,4.2-23.1,12.7v47.2
				c0,6.1,0.4,9.8,1.1,11.2c0.9,1.9,2.2,3.3,3.8,4.2c1.6,0.9,4.8,1.3,9.7,1.3v3.5h-44.2v-3.5h2c4.6,0,7.6-1.2,9.2-3.5
				c1.6-2.3,2.4-6.7,2.4-13.2v-33.2c0-10.7-0.2-17.3-0.7-19.6s-1.2-3.9-2.2-4.8c-1-0.8-2.4-1.3-4.1-1.3c-1.8,0-4,0.5-6.5,1.5
				l-1.5-3.5l27-10.9h4.2V239.1z"/>
			<path class="st4" d="M1003,193.4v29.4h20.9v6.8H1003v58c0,5.8,0.8,9.7,2.5,11.7c1.7,2,3.8,3,6.4,3c2.1,0,4.2-0.7,6.2-2
				c2-1.3,3.6-3.3,4.7-5.9h3.8c-2.3,6.4-5.5,11.2-9.7,14.4c-4.2,3.2-8.5,4.8-12.9,4.8c-3,0-5.9-0.8-8.8-2.5c-2.9-1.7-5-4-6.3-7.1
				c-1.4-3.1-2.1-7.9-2.1-14.3v-60.2h-14.2v-3.2c3.6-1.4,7.2-3.9,11-7.3c3.7-3.4,7.1-7.5,10-12.2c1.5-2.5,3.6-7,6.2-13.6H1003z"/>
			<path class="st4" d="M1082,299.4c-9.2,7.1-14.9,11.2-17.3,12.3c-3.5,1.6-7.3,2.4-11.2,2.4c-6.2,0-11.3-2.1-15.3-6.3
				c-4-4.2-6-9.8-6-16.7c0-4.4,1-8.1,2.9-11.3c2.7-4.4,7.3-8.6,13.9-12.5c6.6-3.9,17.6-8.7,33-14.3v-3.5c0-8.9-1.4-15-4.2-18.4
				s-7-5-12.4-5c-4.1,0-7.4,1.1-9.8,3.3c-2.5,2.2-3.7,4.8-3.7,7.6l0.2,5.7c0,3-0.8,5.3-2.3,6.9c-1.5,1.6-3.5,2.4-6,2.4
				c-2.4,0-4.4-0.8-5.9-2.5c-1.5-1.7-2.3-4-2.3-6.9c0-5.6,2.9-10.7,8.6-15.4c5.7-4.7,13.8-7,24.1-7c7.9,0,14.5,1.3,19.5,4
				c3.8,2,6.7,5.2,8.5,9.5c1.2,2.8,1.8,8.5,1.8,17.2v30.4c0,8.5,0.2,13.8,0.5,15.7c0.3,1.9,0.9,3.2,1.6,3.9c0.7,0.7,1.6,1,2.6,1
				c1,0,2-0.2,2.7-0.7c1.4-0.8,4-3.2,7.9-7.1v5.5c-7.3,9.8-14.3,14.6-20.9,14.6c-3.2,0-5.7-1.1-7.6-3.3
				C1083,308.5,1082,304.7,1082,299.4z M1082,293.1V259c-9.8,3.9-16.2,6.7-19,8.3c-5.1,2.9-8.8,5.9-11,9c-2.2,3.1-3.3,6.5-3.3,10.3
				c0,4.7,1.4,8.6,4.2,11.7c2.8,3.1,6,4.6,9.7,4.6C1067.4,302.8,1073.9,299.6,1082,293.1z"/>
			<path class="st4" d="M1143.8,173.4v118.7c0,5.6,0.4,9.3,1.2,11.1c0.8,1.8,2.1,3.2,3.8,4.2c1.7,0.9,4.8,1.4,9.5,1.4v3.5h-43.8
				v-3.5c4.1,0,6.9-0.4,8.4-1.3c1.5-0.8,2.7-2.2,3.5-4.2c0.8-2,1.3-5.7,1.3-11.2v-81.2c0-10.1-0.2-16.3-0.7-18.6
				c-0.5-2.3-1.2-3.9-2.2-4.7c-1-0.8-2.3-1.3-3.9-1.3c-1.7,0-3.8,0.5-6.4,1.6l-1.7-3.4l26.7-10.9H1143.8z"/>
		</g>
	</g>
	<line class="st5" x1="410.1" y1="332.1" x2="1177.8" y2="332.1"/>
	<path class="st6" d="M125.9,374l-0.3,0.3l-0.3,0.3c0,0-0.1,0.1-0.3,0.3c2,3.1,3.8,5.2,5,6.6c1.2,1.4,1.8,2.1,1.8,2.1
		c2.4,2.7,5,5.4,7.7,7.9c1.4,1.2,2.7,2.5,4.1,3.7c0.7,0.6,1.4,1.2,2.1,1.8c0.7,0.6,1.5,1.1,2.2,1.7c2.9,2.3,5.9,4.4,9,6.5
		c1.5,1,3.2,2,4.7,2.9c1.6,1,3.2,1.8,4.9,2.8c3.3,1.8,6.6,3.4,10.1,4.9c0.9,0.4,1.7,0.8,2.6,1.1c0.9,0.3,1.7,0.7,2.6,1
		c1.7,0.7,3.5,1.4,5.3,1.9c1.8,0.6,3.6,1.2,5.4,1.7c1.8,0.5,3.6,1,5.4,1.5c1.8,0.5,3.7,0.9,5.5,1.4c0.9,0.2,1.8,0.5,2.8,0.7
		c0.9,0.2,1.8,0.4,2.8,0.6c1.9,0.4,3.7,0.8,5.6,1.1c1.9,0.3,3.7,0.6,5.6,0.9c3.2,0.4,6.4,0.7,9.6,0.8c0.6,0,1.1,0,1.7,0
		c1.9,0,3.8-0.1,5.7-0.2c1.9,0,3.8-0.4,5.6-0.6c1.9-0.3,3.7-0.5,5.6-0.8c1.8-0.4,3.7-0.7,5.5-1.2c0.9-0.2,1.8-0.4,2.7-0.6
		c0.9-0.2,1.8-0.5,2.7-0.8c1.8-0.5,3.6-1.1,5.4-1.7c0.9-0.3,1.8-0.6,2.6-0.9c0.9-0.3,1.7-0.7,2.6-1c1.7-0.7,3.5-1.5,5.2-2.2
		c0,0,0.2-0.1,0.6-0.3l1.9-1c1.7-0.9,4.2-2.2,7.3-4.3c-0.1-0.3-0.1-0.4-0.1-0.4c0-0.1-0.1-0.3-0.1-0.4c0-0.1-0.1-0.3-0.1-0.4
		l-0.1-0.4c-3.8-0.3-6.5-0.3-8.4-0.4c-0.9,0-1.6,0-2,0c-0.5,0-0.7,0-0.7,0c-1.8,0-3.6-0.1-5.4-0.1c-0.8,0-1.6,0-2.3,0c-1,0-2,0-3,0
		c-1.8,0-3.5,0-5.3,0l-2.6,0c-0.9,0-1.7,0-2.6,0c-1.7,0-3.5,0-5.2,0c-1.7,0-3.5-0.1-5.2-0.1c-0.9,0-1.7,0-2.6,0c-0.4,0-0.9,0-1.3,0
		c-0.4,0-0.9,0-1.3,0c-1.7,0-3.4-0.1-5.1,0c-0.5,0-1,0-1.5,0c-1.4,0-2.9,0-4.3,0c-1.4,0-2.9,0.1-4.3,0.1c-1.7,0-3.4,0-5.1,0
		c-1.7,0-3.4-0.1-5.1-0.2c-3.4-0.1-6.8-0.6-10.3-1c-1.7-0.3-3.4-0.6-5.1-0.9c-1.7-0.3-3.4-0.7-5.1-1.1c-1.7-0.3-3.4-0.8-5-1.2
		c-0.8-0.2-1.7-0.4-2.5-0.7c-0.8-0.2-1.6-0.5-2.5-0.8c-3.3-1-6.6-2.1-9.9-3.3c-1.6-0.7-3.2-1.2-4.8-2c-1.6-0.7-3.2-1.4-4.8-2.2
		c-3.2-1.5-6.3-3.1-9.3-4.8l-2.3-1.3c-0.7-0.5-1.5-0.9-2.2-1.4c-1.5-0.9-3-1.9-4.4-2.9c-2.9-2-5.8-4.1-8.5-6.3c0,0-0.7-0.6-2.1-1.7
		c-1.3-1.2-3.4-2.9-5.8-5.4L125.9,374z"/>
	<path class="st6" d="M137.9,412.5c-0.1,0.1-0.2,0.2-0.3,0.3l-0.3,0.3l-0.3,0.3c2,2.4,3.7,4,4.7,5.2c1.1,1.1,1.7,1.6,1.7,1.6
		c2.3,2.1,4.6,4.2,7,6.2c2.4,2,4.9,3.8,7.5,5.7c2.6,1.8,5.2,3.5,7.9,5.2c1.4,0.8,2.7,1.6,4.1,2.4c1.4,0.7,2.8,1.5,4.2,2.2
		c1.4,0.7,2.8,1.4,4.3,2.1c1.5,0.6,2.9,1.3,4.4,1.9c3,1.2,5.9,2.4,9,3.3c0.8,0.3,1.5,0.5,2.3,0.8l2.3,0.7c1.5,0.4,3.1,0.9,4.6,1.3
		c1.6,0.4,3.1,0.8,4.7,1.2c1.6,0.3,3.2,0.7,4.7,1c1.6,0.4,3.2,0.6,4.8,0.9c1.6,0.3,3.2,0.6,4.8,0.8c1.6,0.2,3.3,0.4,4.9,0.5
		c1.6,0.1,3.2,0.1,4.8,0.1c0.8,0,1.6,0,2.4-0.1c0.8-0.1,1.6-0.1,2.4-0.2c1.6-0.2,3.2-0.4,4.8-0.6c3.2-0.7,6.4-1.3,9.5-2.3
		c1.5-0.5,3.1-1,4.6-1.5c1.5-0.6,3-1.2,4.5-1.9c3-1.2,5.8-2.9,8.6-4.5l0.5-0.3c0.3-0.2,0.9-0.5,1.5-1c1.3-0.9,3.3-2.3,5.8-4.5
		l-0.1-0.4c0-0.1-0.1-0.3-0.1-0.4l-0.1-0.4c0,0,0-0.1-0.1-0.4c-3.3-0.2-5.6-0.1-7.2,0c-0.8,0-1.3,0.1-1.7,0h-0.6
		c-1.6,0-3.1,0.1-4.6,0.1c-1.5,0.1-3,0.1-4.5,0.1c-1.5,0-3,0.1-4.4,0.2c-1.5,0-2.9,0-4.4,0.1c-0.7,0-1.4,0.1-2.2,0.1
		c-0.5,0-0.9,0-1.4,0c-0.3,0-0.5,0-0.8,0c-1.4,0-2.9,0-4.3,0.1c-0.6,0-1.3,0-1.9,0c-0.8,0-1.6,0-2.4,0c-0.7,0-1.4,0.1-2.1,0.1
		l-2.1,0c-1.4,0-2.8,0.1-4.2,0.2c-1.4,0-2.9,0.1-4.3,0.2c-1.4,0.1-2.9,0.1-4.3,0.1c-1.4,0-2.9,0.1-4.3,0c-1.4-0.1-2.9-0.1-4.3-0.2
		c-1.4-0.1-2.9-0.3-4.3-0.5c-1.4-0.1-2.9-0.4-4.3-0.6c-0.7-0.1-1.4-0.2-2.1-0.3c-0.7-0.1-1.4-0.3-2.1-0.4c-2.9-0.5-5.7-1.2-8.5-2
		c-1.4-0.4-2.8-0.8-4.2-1.2c-1.4-0.4-2.8-0.9-4.2-1.3c-1.4-0.5-2.8-1-4.2-1.5c-1.4-0.5-2.8-1.1-4.1-1.6c-2.8-1.1-5.5-2.3-8.2-3.6
		c-1.3-0.7-2.7-1.3-4-2c-1.3-0.7-2.7-1.4-4-2.1c-2.6-1.4-5.2-3-7.8-4.6c0,0-0.6-0.4-1.9-1.2c-1.3-0.8-3.2-2.1-5.5-3.9L137.9,412.5z"
		/>
	<path class="st6" d="M148.8,448.1c-0.1,0.1-0.2,0.2-0.3,0.3l-0.3,0.3l-0.3,0.3c1.8,2,3.2,3.4,4.2,4.3c1,0.9,1.4,1.4,1.4,1.4
		c2,1.8,4,3.5,6.1,5.2c1,0.8,2.1,1.7,3.2,2.5c1.1,0.8,2.1,1.6,3.2,2.3c2.2,1.5,4.4,3,6.7,4.4c1.1,0.7,2.3,1.4,3.5,2.1
		c1.2,0.7,2.4,1.3,3.6,2c1.2,0.6,2.4,1.3,3.6,1.8c1.2,0.6,2.4,1.2,3.7,1.7c1.3,0.5,2.5,1.1,3.8,1.6c1.3,0.5,2.6,1,3.8,1.5
		c2.6,0.9,5.2,1.7,7.9,2.4c1.3,0.4,2.7,0.7,4,1.1c1.4,0.3,2.7,0.8,4.1,1c1.4,0.3,2.7,0.6,4.1,0.9c1.4,0.2,2.8,0.5,4.2,0.7
		c1.2,0.2,2.3,0.3,3.5,0.4c1.2,0.1,2.4,0.1,3.5,0.2c0.5,0,0.9,0,1.4,0c1.4-0.1,2.8-0.2,4.3-0.3c1.4-0.2,2.8-0.5,4.2-0.7
		c0.7-0.2,1.4-0.3,2.1-0.4c0.7-0.2,1.4-0.4,2.1-0.6c1.4-0.4,2.7-0.8,4.1-1.3c2.6-1.1,5.3-2.1,7.7-3.5c0.6-0.3,1.2-0.7,1.8-1
		c0.6-0.4,1.2-0.7,1.8-1.1c1.2-0.8,2.3-1.6,3.4-2.5c0,0,0.1-0.1,0.4-0.3c0.3-0.2,0.7-0.5,1.2-1c1-1,2.6-2.4,4.5-4.6
		c-0.1-0.3-0.2-0.4-0.2-0.4c-0.1-0.1-0.1-0.3-0.2-0.4l-0.2-0.4c0,0-0.1-0.1-0.2-0.4c-2.9-0.1-4.9,0.1-6.2,0.1c-1.3,0.1-2,0.1-2,0.1
		c-1.3,0-2.6,0.1-3.9,0.2c-1.3,0.1-2.6,0.1-3.8,0.2c-2.5,0.2-5,0.2-7.4,0.3c-1.2,0-2.4,0-3.6,0.1c-1.2,0-2.4,0.1-3.6,0.1
		c-1.2,0-2.4,0-3.5,0.1c-1.2,0-2.4,0-3.5,0.1c-0.4,0-0.8,0-1.2,0.1c-1,0-2,0.1-2.9,0.1c-1,0.1-2,0.2-3,0.2c-1.2,0.1-2.4,0.1-3.6,0.2
		c-1.2,0-2.4,0-3.6,0c-1.2,0-2.4-0.1-3.6-0.1c-0.6,0-1.2-0.1-1.8-0.1c-0.6-0.1-1.2-0.1-1.8-0.2c-2.4-0.3-4.8-0.7-7.3-1.2
		c-1.2-0.3-2.4-0.5-3.6-0.8c-1.2-0.3-2.4-0.6-3.6-0.9c-1.2-0.3-2.4-0.6-3.6-1c-1.2-0.3-2.4-0.7-3.6-1.1c-1.2-0.4-2.4-0.7-3.6-1.2
		c-1.2-0.4-2.4-0.8-3.6-1.3c-2.4-0.9-4.7-1.8-7.1-2.9c-2.3-1-4.6-2.1-6.9-3.2c-2.3-1.1-4.6-2.3-6.8-3.6c0,0-0.6-0.3-1.7-1
		c-1.1-0.6-2.8-1.6-4.9-3L148.8,448.1z"/>
	<path class="st6" d="M161,482.9c-0.1,0.1-0.2,0.2-0.3,0.3c-0.1,0.1-0.2,0.2-0.3,0.3c0,0-0.1,0.1-0.3,0.3c1.4,1.7,2.6,2.8,3.3,3.6
		c0.8,0.8,1.1,1.2,1.1,1.2c1.6,1.5,3.2,3,4.8,4.4c1.7,1.4,3.4,2.8,5.1,4.1c1.8,1.3,3.6,2.6,5.4,3.8c1.9,1.2,3.8,2.4,5.7,3.5
		c1,0.5,2,1.1,3,1.6c1,0.5,2,1,3,1.5c2.1,0.9,4.1,1.8,6.3,2.6c1.1,0.4,2.2,0.8,3.3,1.1c1.1,0.4,2.2,0.7,3.3,1
		c2.2,0.6,4.5,1.2,6.8,1.8c2.3,0.5,4.6,1,7,1.3c0.7,0.1,1.5,0.2,2.2,0.2c1.7,0.1,3.3,0.1,5,0c2.4-0.2,4.8-0.6,7.1-1.3
		c2.3-0.6,4.6-1.6,6.8-2.6c1.1-0.6,2.1-1.1,3.2-1.8c0.5-0.3,1-0.6,1.5-0.9c0.5-0.4,1-0.7,1.5-1.1c0.5-0.3,1-0.7,1.4-1.1
		c0.5-0.4,0.9-0.7,1.4-1.1c0.9-0.8,1.7-1.7,2.5-2.5c0,0,0.1-0.1,0.3-0.3c0.2-0.2,0.5-0.5,0.9-1c0.7-1,1.8-2.4,3-4.6
		c-0.2-0.2-0.2-0.4-0.2-0.4c-0.1-0.1-0.2-0.2-0.2-0.4c-0.1-0.1-0.2-0.2-0.2-0.4c0,0-0.1-0.1-0.2-0.4c-2.5,0-4.1,0.2-5.2,0.3
		c-1.1,0.1-1.6,0.1-1.6,0.1c-1.1,0.1-2.1,0.2-3.2,0.3c-1,0.1-2.1,0.1-3.1,0.2c-2,0.2-4,0.3-5.8,0.5c-1,0-1.9,0.1-2.8,0.1
		c-0.9,0.1-1.9,0.1-2.8,0.1c-1.8,0.1-3.7,0.2-5.5,0.4c-1.3,0.1-2.5,0.2-3.8,0.4c-0.6,0-1.1,0.1-1.7,0.2c-1.9,0.3-3.8,0.4-5.7,0.6
		c-1,0-1.9,0-2.9,0c-1,0-1.9-0.1-2.9-0.2c-1-0.1-1.9-0.2-2.9-0.3c-1-0.1-1.9-0.3-2.9-0.5c-1.9-0.3-3.9-0.8-5.8-1.2
		c-1-0.2-2-0.5-2.9-0.7c-1-0.3-1.9-0.6-2.9-0.8c-1.9-0.6-3.9-1.2-5.8-1.9c-1.9-0.7-3.9-1.4-5.8-2.2c-1.9-0.8-3.8-1.7-5.7-2.6
		c-1.9-0.9-3.8-1.9-5.6-2.9c0,0-0.5-0.3-1.4-0.8c-0.9-0.5-2.3-1.3-4.1-2.4C161.1,482.8,161,482.9,161,482.9"/>
	<g>
		<text transform="matrix(1 0 0 1 442.5397 378.8498)"><tspan x="0" y="0" class="st0 st7 st8 st9">by Dr</tspan><tspan x="172.1" y="0" class="st0 st7 st8 st10">.</tspan><tspan x="201" y="0" class="st0 st7 st8 st9">Drochioi Cristian</tspan></text>
	</g>
	<linearGradient id="SVGID_3_" gradientUnits="userSpaceOnUse" x1="193.4224" y1="325.7964" x2="209.8217" y2="67.192">
		<stop  offset="0" style="stop-color:#314279"/>
		<stop  offset="0.5633" style="stop-color:#241A57"/>
		<stop  offset="1" style="stop-color:#1B0041"/>
	</linearGradient>
	<path class="st11" d="M348.1,103.5c-9.8-48.2-40.4-61.2-70.7-61.2c-31.3,0-62.2,13.8-69.7,17.4c-0.1,0-1.7,0.8-1.7,0.8
		c-9,4.2-50.8,21.9-86.7,9.8c0,0,42.7,2.7,73.5-15C91.2,18.9,66.6,83,66.6,83c-36.1,111.7,47.7,245.6,47.7,245.6
		s55.8,29.5,81.8,35.9c50.6,12.6,95.3,7.7,95.3,7.7C298.9,366.8,369.4,208.7,348.1,103.5z"/>
	<path class="st12" d="M150.5,255.5c0,0-53.2-70.7-24.4-117c28.8-46.3,82.6-48.2,99.5-45.1c16.9,3.1,50.7,16.3,56.3,40
		c5.6,23.8,6.3,33.8,5,40.7c-1.3,6.9-1.3,17.5,3.8,23.8c5,6.3,11.3,13.8,11.3,13.8s6.3,6.9-5,11.3c-11.3,4.4-6.9,7.5-6.3,10
		c0.6,2.5,1.9,4.4,2.5,6.3c0.6,1.9-1.9,1.3-3.1,3.1c-1.3,1.9-3.8,5-1.9,8.1c1.9,3.1-5.6,3.1-6.3,7.5c-0.6,4.4,1.3,6.9,1.9,8.1
		c0.6,1.3,3.1,11.3-13.8,13.1c-16.9,1.9-16.9-0.6-22.5-1.3c-5.6-0.6-24.3,20.6-23.1,36.9c1,13-42.5-4.4-59.9-11.9
		c-3.7-1.6-5.8-5.6-5-9.5c1.3-5.9,1.8-15.6-3.4-27.4"/>
	<path class="st13" d="M114.9,337.7c-0.1,0.1-0.2,0.2-0.3,0.4l-0.3,0.4l-0.3,0.4c2.8,3,5,5,6.4,6.4l2.2,2.1c3,2.7,6.1,5.3,9.2,7.9
		c1.6,1.3,3.1,2.6,4.8,3.8c1.6,1.2,3.2,2.5,4.9,3.6c1.6,1.2,3.3,2.4,5,3.5c1.7,1.2,3.4,2.3,5.1,3.4l2.6,1.7l2.6,1.6
		c1.7,1.1,3.5,2.1,5.3,3.1c3.5,2.1,7.1,4,10.8,5.9c1.9,0.9,3.7,1.8,5.6,2.7c1.9,0.8,3.8,1.7,5.6,2.5c1.9,0.8,3.8,1.6,5.7,2.3
		c1,0.4,1.9,0.8,2.9,1.1c1,0.4,1.9,0.7,2.9,1c3.9,1.4,7.9,2.7,11.8,4.1l6,1.8c2,0.6,4.1,1.1,6.1,1.6l3.1,0.7c1,0.2,2.1,0.4,3.1,0.6
		c2.1,0.3,4.2,0.7,6.3,0.9c4.2,0.3,8.5,0.5,12.7,0.2c1.5-0.1,2.9-0.2,4.4-0.3c2.8-0.3,5.5-0.7,8.3-1.1c2.1-0.4,4.2-0.9,6.2-1.4
		c1-0.2,2.1-0.5,3.1-0.7c1-0.3,2-0.6,3-1c2-0.7,4-1.3,6-2.1c1.9-0.8,3.9-1.7,5.8-2.6c0,0,1-0.4,2.8-1.4c1.8-1.1,4.6-2.7,8-5.1
		c-0.1-0.3-0.1-0.5-0.1-0.5c-0.1-0.2-0.1-0.3-0.1-0.5c0-0.2-0.1-0.3-0.1-0.5l-0.1-0.5c-4.2-0.4-7.2-0.3-9.2-0.3c-2-0.1-3-0.1-3-0.1
		c-2-0.1-4-0.1-5.9-0.1c-32.2,0-56.9-2.8-73.3-7l-2.8-0.7c-0.9-0.2-1.8-0.5-2.8-0.7c-1.8-0.5-3.7-1-5.5-1.6
		c-1.8-0.6-3.7-1.1-5.5-1.7c-1.8-0.6-3.6-1.3-5.5-1.9c-3.6-1.3-7.3-2.6-10.9-4.1c-1.8-0.7-3.6-1.5-5.4-2.3c-0.9-0.4-1.8-0.8-2.7-1.2
		c-0.9-0.4-1.8-0.8-2.7-1.2c-1.8-0.8-3.6-1.6-5.3-2.5c-1.8-0.8-3.5-1.7-5.3-2.6c-3.5-1.8-6.9-3.7-10.4-5.6c-3.4-1.9-6.8-4-10.2-6.1
		c0,0-0.8-0.5-2.5-1.6c-1.7-1.1-4.2-2.7-7.4-5L114.9,337.7z"/>
</g>
</svg>
