<svg width="35" height="35" fill="none" xmlns="http://www.w3.org/2000/svg"><g clip-path="url(#004-avatar__a)" fill="#28427B"><path d="M31.647 21.117a6.529 6.529 0 0 0-3.676-2.277l-6.01-1.319-.016-.002-.522-.524a6.733 6.733 0 0 0 2.805-5.14c.005-.051.008-.103.008-.155V6.734A6.742 6.742 0 0 0 17.502 0a6.742 6.742 0 0 0-6.734 6.734V11.7c0 .052.003.104.008.155a6.734 6.734 0 0 0 2.832 5.16l-.507.508-6.005 1.317a6.529 6.529 0 0 0-3.676 2.278 6.529 6.529 0 0 0-1.438 4.079v9.12c0 .377.306.683.684.683h29.735a.684.684 0 0 0 .683-.684v-9.12a6.53 6.53 0 0 0-1.437-4.079Zm-14.122 6.807 1.07 5.709h-2.141l1.07-5.709Zm0-4.674-.942-.942.942-.942.942.942-.942.942Zm-.023-3.566-1.626-1.625a6.732 6.732 0 0 0 3.252 0l-1.626 1.625Zm-3.282-1.348 2.2 2.2-1.52 1.524-2.2-2.197 1.521-1.526Zm4.386 2.178 2.2-2.2 1.544 1.548-2.2 2.197-1.544-1.545Zm4.15-8.702h-4.458a.113.113 0 0 1-.112-.112V9.072c0-.062.05-.112.112-.112h4.459c.062 0 .112.05.112.112v2.451c0 .07-.003.14-.005.209a.112.112 0 0 1-.107.08Zm-10.616-.08a5.358 5.358 0 0 1-.005-.209v-2.45c0-.063.05-.113.113-.113h4.458c.062 0 .112.05.112.112V11.7c0 .062-.05.112-.112.112h-4.458a.113.113 0 0 1-.108-.08Zm-.005-4.998a5.373 5.373 0 0 1 5.367-5.367 5.373 5.373 0 0 1 5.367 5.367v.859h-1.912a2.07 2.07 0 0 1-1.106-.318 9.2 9.2 0 0 0 1.16-.983.684.684 0 0 0-.968-.967 7.69 7.69 0 0 1-5.473 2.267h-2.435v-.858Zm.263 6.445h4.308c.293 0 .566-.085.796-.233.23.147.503.233.796.233h4.308a5.376 5.376 0 0 1-5.104 3.711 5.376 5.376 0 0 1-5.104-3.71ZM3.35 25.197a5.172 5.172 0 0 1 4.039-5.022l3.927-.861-.066.067a.683.683 0 0 0 0 .966l3.166 3.162a.681.681 0 0 0 .966 0l.234-.234 1.17 1.17-1.723 9.188H7.271V27.59a.684.684 0 1 0-1.367 0v6.043H3.35v-8.436Zm28.367 8.436h-2.571v-3.308a.684.684 0 0 0-1.367 0v3.308h-7.792l-1.724-9.188 1.17-1.17.234.234a.681.681 0 0 0 .967 0l3.165-3.162a.684.684 0 0 0 .001-.966l-.071-.072 3.949.866a5.172 5.172 0 0 1 4.04 5.022v8.436Z"/><path d="M28.462 26.907a.687.687 0 0 0-.484 1.167.686.686 0 0 0 1.167-.483.685.685 0 0 0-.683-.684Z"/></g><defs><clipPath id="004-avatar__a"><path fill="#fff" d="M0 0h35v35H0z"/></clipPath></defs></svg>