<svg width="35" height="35" fill="none" xmlns="http://www.w3.org/2000/svg"><path d="M27.07 16.133a.684.684 0 1 0 0 1.368.684.684 0 0 0 0-1.368Zm-19.14 0a.684.684 0 1 0 0 1.368.684.684 0 0 0 0-1.368Zm15.722 2.734h-3.418V15.45a.684.684 0 0 0-.683-.683h-4.102a.684.684 0 0 0-.683.683v3.418h-3.418a.684.684 0 0 0-.684.684v4.101c0 .378.306.684.684.684h3.418v3.418c0 .377.306.683.683.683h4.102a.684.684 0 0 0 .683-.683v-3.418h3.418a.684.684 0 0 0 .684-.684v-4.101a.684.684 0 0 0-.684-.684Zm-.683 4.102H19.55a.684.684 0 0 0-.684.683v3.418h-2.734v-3.418a.684.684 0 0 0-.684-.683H12.03v-2.735h3.418a.684.684 0 0 0 .684-.683v-3.418h2.734v3.418c0 .377.306.683.684.683h3.418v2.735Z" fill="#28427B"/><path d="M31.582 9.297h-5.195V5.195a4.106 4.106 0 0 0-4.102-4.101h-9.57a4.106 4.106 0 0 0-4.102 4.101v4.102H3.418A3.422 3.422 0 0 0 0 12.715v17.773a3.422 3.422 0 0 0 3.418 3.418h28.164A3.422 3.422 0 0 0 35 30.488V12.715a3.422 3.422 0 0 0-3.418-3.418ZM9.98 5.195a2.737 2.737 0 0 1 2.735-2.734h9.57a2.737 2.737 0 0 1 2.735 2.734v4.102h-1.368V5.879c0-1.13-.92-2.05-2.05-2.05h-8.204c-1.13 0-2.05.92-2.05 2.05v3.418H9.98V5.195Zm12.305.684v3.418h-9.57V5.879c0-.377.306-.684.683-.684h8.204c.377 0 .683.307.683.684ZM4.512 32.539H3.418c-1.13 0-2.05-.92-2.05-2.05V12.714c0-1.131.92-2.05 2.05-2.05h1.094v21.874Zm24.61 0h-1.368V19.551a.684.684 0 0 0-1.367 0v12.988H8.613V19.551a.684.684 0 0 0-1.367 0v12.988H5.88V10.664h1.367v3.418a.684.684 0 0 0 1.367 0v-3.418h17.774v3.418a.684.684 0 0 0 1.367 0v-3.418h1.367V32.54Zm4.51-2.05c0 1.13-.92 2.05-2.05 2.05h-1.094V10.664h1.094c1.13 0 2.05.92 2.05 2.05v17.774Z" fill="#28427B"/></svg>